<?xml version="1.0" encoding="utf-8"?>
<!-- Generator: Adobe Illustrator 25.0.0, SVG Export Plug-In . SVG Version: 6.00 Build 0)  -->
<svg version="1.1" id="Capa_1" xmlns="http://www.w3.org/2000/svg" xmlns:xlink="http://www.w3.org/1999/xlink" x="0px" y="0px"
	 viewBox="0 0 301.6 102.1" style="enable-background:new 0 0 301.6 102.1;" xml:space="preserve">
<style type="text/css">
	.st0{fill:#AE95DA;}
	.st1{fill:#003764;}
</style>
<g>
	<g>
		<path class="st0" d="M136,28.6v22.7c0,11.4-3.6,16.4-11.7,16.4c-8.2,0-11.8-5.1-11.8-16.4V28.6h-6.7v22.7c0,15,6.4,23,18.4,23
			c12,0,18.4-8,18.4-23V28.6H136z"/>
		<path class="st0" d="M163.6,41.6c-4.5,0-8.8,2.3-10.2,5.5v-5.2h-6.7v45.3h6.7V68.7c1.4,3.3,5.8,5.6,10.2,5.6
			c9.3,0,15.3-6.5,15.3-16.3C178.8,48.1,172.8,41.6,163.6,41.6z M162.8,67.6c-5.4,0-9.4-4-9.4-9.7c0-5.8,3.8-9.6,9.3-9.6
			c5.6,0,9.4,3.8,9.4,9.7C172.2,63.8,168.4,67.6,162.8,67.6z"/>
		<path class="st1" d="M205.6,47.5c-5.5-1.3-10-2.1-10-6.7c0-4,3.7-6.1,8.2-6.1c4.4,0,8,2.1,8.3,6.3h6.7c-0.1-8.6-7.1-12.7-15-12.7
			c-8.1,0-14.8,3.9-14.8,12.6c0,10,8.5,11.2,15.5,12.9c4.8,1.2,8.8,2.7,8.7,7.3c0,4.4-4.2,6.8-9.2,6.8c-5,0-9.3-3.2-9.6-7.9h-6.7
			c0.2,9,7.8,14.2,16.4,14.2c8.7,0,15.8-5.2,15.8-13.2C219.9,51.7,212.4,49.1,205.6,47.5z"/>
		<path class="st1" d="M241.1,41.6c-4.5,0-8.8,2.3-10.2,5.5v-5.2h-6.7v45.3h6.7V68.7c1.4,3.3,5.8,5.6,10.2,5.6
			c9.3,0,15.2-6.5,15.2-16.3C256.3,48.1,250.3,41.6,241.1,41.6z M240.3,67.6c-5.4,0-9.4-4-9.4-9.7c-0.1-5.8,3.8-9.6,9.3-9.6
			c5.6,0,9.4,3.8,9.4,9.7C249.7,63.8,245.9,67.6,240.3,67.6z"/>
		<path class="st1" d="M285.9,41.9v5.2c-1.4-3.3-5.8-5.6-10.2-5.6c-9.3,0-15.2,6.5-15.2,16.3c0,9.9,6,16.4,15.2,16.4
			c4.5,0,8.8-2.3,10.2-5.5v5.2h6.7v-32H285.9z M276.5,67.6c-5.6,0-9.4-3.8-9.4-9.7c0-5.8,3.8-9.6,9.4-9.6c5.4,0,9.4,4,9.4,9.7
			C285.9,63.7,282.1,67.6,276.5,67.6z"/>
	</g>
	<g>
		<path class="st0" d="M69.4,25.3c-0.8,1-1.6,2.1-2.4,3.1c-0.9,1.4-1.8,2.8-2.6,4.3c-2.9-6.2-7.3-11.8-12.7-16
			c-5.4,4.3-9.8,9.8-12.8,16c-0.8-1.5-1.7-3-2.6-4.3c-0.7-1.1-1.5-2.1-2.4-3.1c2.8-4.8,6.3-9.1,10.5-12.8c0.3-0.3,0.6-0.6,1-0.9
			c1.8-1.5,3.8-3,5.9-4.3l0.3-0.2L52,7.3c2.1,1.3,4,2.7,5.9,4.3c0.3,0.3,0.7,0.6,1,0.9C63,16.2,66.6,20.5,69.4,25.3z"/>
		<path class="st0" d="M68.6,78.6c-1.6,2.5-3.4,4.9-5.4,7.2c-1.8,0.6-3.6,1.1-5.5,1.4c-0.6,0.1-1.2,0.2-1.8,0.3
			c-2.9,0.4-5.8,0.4-8.7,0c-0.6-0.1-1.2-0.2-1.8-0.3c-1.9-0.3-3.7-0.8-5.5-1.4c-2-2.2-3.8-4.6-5.4-7.2c0.6-0.7,1.1-1.4,1.6-2.2
			c1.2-1.7,2.2-3.5,3.1-5.4c2.9,5.8,7.1,10.9,12.2,14.9c5.1-4,9.3-9.1,12.2-14.9c0.9,1.9,2,3.7,3.1,5.4C67.5,77.2,68,77.9,68.6,78.6
			z"/>
		<path class="st1" d="M82,22.6c-1.4-1.5-3-2.9-4.7-4.2l-0.4-0.3l-0.4,0.3c-1.7,1.3-3.3,2.7-4.7,4.1c-1.8,1.8-3.4,3.7-4.8,5.8
			c-1.4,2-2.6,4.1-3.6,6.4c-2.5,5.6-3.8,11.5-3.8,17.6c0,6.1,1.3,12.1,3.8,17.7c1,2.2,2.2,4.4,3.6,6.4c1.3,1.9,2.7,3.7,4.3,5.3
			c-4.1,2.8-8.7,4.6-13.5,5.5c-0.6,0.1-1.2,0.2-1.8,0.3c-2.9,0.4-5.8,0.4-8.7,0c-0.6-0.1-1.2-0.2-1.8-0.3c-4.9-0.8-9.4-2.7-13.5-5.5
			c1.6-1.6,3-3.4,4.3-5.3c1.4-2,2.6-4.1,3.6-6.4c2.5-5.6,3.8-11.5,3.8-17.7c0-6.1-1.3-12.1-3.8-17.6c-1-2.2-2.2-4.4-3.6-6.4
			c-1.4-2.1-3-4.1-4.8-5.8c-1.4-1.5-3-2.9-4.7-4.2l-0.4-0.3L26,18.4c-1.7,1.3-3.3,2.7-4.7,4.1C13.4,30.6,9,41.2,9,52.4
			c0,11.2,4.3,21.8,12.2,29.8c1.4,1.5,3,2.9,4.7,4.1c3.5,2.7,7.4,4.7,11.6,6.2c3.5,1.2,7.1,2,10.8,2.3c1,0.1,2.1,0.1,3.2,0.1
			c1.1,0,2.2,0,3.2-0.1c3.7-0.3,7.3-1,10.8-2.3c4.2-1.5,8.1-3.6,11.6-6.2c1.7-1.3,3.3-2.7,4.7-4.1c7.9-8,12.2-18.6,12.2-29.8
			C94.2,41.2,89.9,30.6,82,22.6z M16.3,52.4c0-9.3,3.6-18,10.1-24.7c2.3,2.3,4.2,4.9,5.7,7.7c1.6,2.9,2.8,6,3.5,9.3
			c0.6,2.5,0.8,5,0.8,7.6c0,2.6-0.3,5.2-0.8,7.7c-0.7,3.2-1.9,6.3-3.5,9.3c-1.5,2.8-3.5,5.5-5.7,7.7C19.9,70.4,16.3,61.7,16.3,52.4z
			 M76.9,77.1c-2.3-2.3-4.2-4.9-5.7-7.7c-1.6-2.9-2.8-6-3.5-9.3c-0.6-2.5-0.8-5-0.8-7.6c0-2.6,0.3-5.2,0.8-7.7
			c0.7-3.2,1.9-6.3,3.5-9.3c1.6-2.8,3.5-5.4,5.7-7.7C83.4,34.4,87,43.1,87,52.4C87,61.7,83.4,70.4,76.9,77.1z"/>
	</g>
</g>
</svg>
