<svg id="Capa_1" data-name="Capa 1" xmlns="http://www.w3.org/2000/svg" viewBox="0 0 311.81 85.04"><defs><style>.cls-1{fill:#66aaa8;}.cls-2{fill:#4f3e87;}</style></defs><path class="cls-1" d="M91.48,58.4a7.39,7.39,0,0,0,3.85-.92A7.22,7.22,0,0,0,97.8,55.1a10,10,0,0,0,1.32-3.35,18.44,18.44,0,0,0,.4-3.88V33h4.68V47.87a22.26,22.26,0,0,1-.7,5.7,13.2,13.2,0,0,1-2.24,4.68,10.61,10.61,0,0,1-4,3.17,13.42,13.42,0,0,1-5.82,1.16,13.2,13.2,0,0,1-6-1.22,10.81,10.81,0,0,1-3.91-3.27,13.37,13.37,0,0,1-2.16-4.71,22.72,22.72,0,0,1-.66-5.51V33h4.64V47.87a19.3,19.3,0,0,0,.39,3.92,10.26,10.26,0,0,0,1.33,3.35,7.08,7.08,0,0,0,2.49,2.37A7.61,7.61,0,0,0,91.48,58.4Z"/><path class="cls-1" d="M119.76,62.79a8.52,8.52,0,0,1-4.59-1.24A9.22,9.22,0,0,1,112,58.31V71.2h-4.56V40.36h4V44.6a9.45,9.45,0,0,1,3.21-3.11,8.64,8.64,0,0,1,4.45-1.16,9.21,9.21,0,0,1,4.11.91,10.36,10.36,0,0,1,3.23,2.45,11.28,11.28,0,0,1,2.13,3.56,12,12,0,0,1,.77,4.27,13.5,13.5,0,0,1-.71,4.41,10.73,10.73,0,0,1-2,3.56,9.74,9.74,0,0,1-3,2.41A8.55,8.55,0,0,1,119.76,62.79Zm-1.49-3.9a5.46,5.46,0,0,0,2.63-.62,6.41,6.41,0,0,0,2-1.66,7.52,7.52,0,0,0,1.3-2.36,8.41,8.41,0,0,0,.46-2.73,7.72,7.72,0,0,0-1.93-5.14,6.8,6.8,0,0,0-2.13-1.58,6.41,6.41,0,0,0-2.7-.58,5.55,5.55,0,0,0-1.82.34,7,7,0,0,0-1.78.91,6.67,6.67,0,0,0-1.45,1.35,4.39,4.39,0,0,0-.87,1.67v5.68A8.23,8.23,0,0,0,113.09,56a8.72,8.72,0,0,0,1.47,1.5,7.31,7.31,0,0,0,1.77,1A5.22,5.22,0,0,0,118.27,58.89Z"/><path class="cls-2" d="M161.61,37.06h-9.78V62.37h-4.68V37.06h-9.82V33h24.28Z"/><path class="cls-2" d="M184.4,62.37h-4.56V50.23a7.46,7.46,0,0,0-1.05-4.41,3.57,3.57,0,0,0-3-1.43,5.4,5.4,0,0,0-1.91.37,6.92,6.92,0,0,0-1.8,1.06,8,8,0,0,0-1.51,1.62,6.86,6.86,0,0,0-1,2.05V62.37H165V33h4.55v12.1a9.07,9.07,0,0,1,8-4.72,6.75,6.75,0,0,1,3.34.73A5.77,5.77,0,0,1,183,43a7.93,7.93,0,0,1,1.1,2.8,17.41,17.41,0,0,1,.31,3.38Z"/><path class="cls-2" d="M199.52,62.79a11.61,11.61,0,0,1-4.6-.89,10.69,10.69,0,0,1-3.54-2.43,11,11,0,0,1-2.28-3.56,11.51,11.51,0,0,1-.81-4.31,11.69,11.69,0,0,1,.81-4.33,11,11,0,0,1,2.28-3.6,10.59,10.59,0,0,1,3.54-2.45,11.72,11.72,0,0,1,4.65-.89,11,11,0,0,1,8.08,3.34,10.35,10.35,0,0,1,2.21,3.52,11.71,11.71,0,0,1,.77,4.2c0,.34,0,.65,0,.94s-.06.53-.09.72H193.14a7.38,7.38,0,0,0,.69,2.61,6.55,6.55,0,0,0,1.45,2,6.32,6.32,0,0,0,2,1.31,6.41,6.41,0,0,0,2.38.45,6.84,6.84,0,0,0,1.8-.23,6.26,6.26,0,0,0,1.64-.66,5.45,5.45,0,0,0,1.32-1.06,5.1,5.1,0,0,0,.92-1.36l3.89,1.12a8.93,8.93,0,0,1-3.71,4A11.43,11.43,0,0,1,199.52,62.79Zm6.59-12.89a7.35,7.35,0,0,0-.68-2.53,6.36,6.36,0,0,0-1.43-2,6.52,6.52,0,0,0-2-1.27,6.74,6.74,0,0,0-2.45-.45,6.41,6.41,0,0,0-4.43,1.72,6.15,6.15,0,0,0-1.41,2A7.56,7.56,0,0,0,193,49.9Z"/><path class="cls-2" d="M226.54,44.64a10.2,10.2,0,0,0-4.7,1.22,6.46,6.46,0,0,0-2.93,3.26V62.37h-4.55v-22h4.22v5.19A9.82,9.82,0,0,1,221.51,42a7,7,0,0,1,3.87-1.47h.68a2.33,2.33,0,0,1,.48,0Z"/><path class="cls-2" d="M235.32,62.79a8,8,0,0,1-2.92-.52,6.92,6.92,0,0,1-2.32-1.43A6.56,6.56,0,0,1,228,56a5.81,5.81,0,0,1,.66-2.77,6.45,6.45,0,0,1,1.89-2.16,9,9,0,0,1,2.9-1.41,13.07,13.07,0,0,1,3.71-.49,16.88,16.88,0,0,1,3,.27,15.79,15.79,0,0,1,2.7.72V48.66a5,5,0,0,0-1.37-3.75,5.38,5.38,0,0,0-3.94-1.35,9.68,9.68,0,0,0-3.42.64,17.52,17.52,0,0,0-3.46,1.85l-1.41-2.9A15.36,15.36,0,0,1,238,40.33a9.93,9.93,0,0,1,7,2.28,8.46,8.46,0,0,1,2.48,6.55V57c0,1,.4,1.46,1.2,1.49v3.89a10.8,10.8,0,0,1-1.13.17c-.32,0-.63,0-.94,0a2.94,2.94,0,0,1-2.05-.66,2.85,2.85,0,0,1-.89-1.7l-.12-1.37a9.67,9.67,0,0,1-3.59,2.92A10.48,10.48,0,0,1,235.32,62.79Zm1.25-3.36a8.26,8.26,0,0,0,3.13-.6,5.43,5.43,0,0,0,2.3-1.68,2.09,2.09,0,0,0,.87-1.57V52.72a13.82,13.82,0,0,0-2.47-.7,13.27,13.27,0,0,0-2.55-.25,7,7,0,0,0-4,1,3.26,3.26,0,0,0-1.55,2.8,3.52,3.52,0,0,0,1.2,2.71A4.33,4.33,0,0,0,236.57,59.43Z"/><path class="cls-2" d="M265.24,62.79a8.58,8.58,0,0,1-4.6-1.24,9.39,9.39,0,0,1-3.15-3.24V71.2h-4.56V40.36h4V44.6a9.39,9.39,0,0,1,3.22-3.11,8.61,8.61,0,0,1,4.45-1.16,9.17,9.17,0,0,1,4.1.91A10.36,10.36,0,0,1,272,43.69a11.13,11.13,0,0,1,2.14,3.56,12,12,0,0,1,.76,4.27,13.5,13.5,0,0,1-.7,4.41,10.73,10.73,0,0,1-2,3.56,9.86,9.86,0,0,1-3,2.41A8.55,8.55,0,0,1,265.24,62.79Zm-1.49-3.9a5.49,5.49,0,0,0,2.63-.62,6.37,6.37,0,0,0,2-1.66,7.55,7.55,0,0,0,1.31-2.36,8.4,8.4,0,0,0,.45-2.73,7.78,7.78,0,0,0-1.92-5.14,6.73,6.73,0,0,0-2.14-1.58,6.4,6.4,0,0,0-2.69-.58,5.65,5.65,0,0,0-1.83.34,7.3,7.3,0,0,0-1.78.91,7.16,7.16,0,0,0-1.45,1.35,4.69,4.69,0,0,0-.87,1.67v5.68A8.67,8.67,0,0,0,258.57,56a8,8,0,0,0,1.47,1.5,7.44,7.44,0,0,0,1.76,1A5.31,5.31,0,0,0,263.75,58.89Z"/><path class="cls-2" d="M279,67.47l1.22.21a8.31,8.31,0,0,0,1,.08,1.83,1.83,0,0,0,.93-.23,2.64,2.64,0,0,0,.81-.8,8.42,8.42,0,0,0,.85-1.64c.29-.71.63-1.61,1-2.72l-9-22h4.68l6.84,18,6.09-18h4.31l-9.94,27a6.17,6.17,0,0,1-2.3,2.9,6.69,6.69,0,0,1-4.21,1.26,9.29,9.29,0,0,1-1-.06,6.3,6.3,0,0,1-1.2-.27Z"/><path class="cls-2" d="M46.48,20.26a7.81,7.81,0,0,1-.15,1.54,7.71,7.71,0,0,1-15.12,0,7.81,7.81,0,0,1-.15-1.54,7.71,7.71,0,1,1,15.42,0Z"/><path class="cls-1" d="M57.47,31.94A23.89,23.89,0,0,0,53.23,28,23.83,23.83,0,0,0,49,31.94a19.26,19.26,0,0,1,4.23,3.72,18.91,18.91,0,0,1,0,24.47A19.21,19.21,0,0,1,49,63.84a18.94,18.94,0,0,1-20.46,0,19.26,19.26,0,0,1-4.24-3.71,18.93,18.93,0,0,1,0-24.48,19.26,19.26,0,0,1,4.24-3.71A23.89,23.89,0,0,0,24.3,28a23.83,23.83,0,0,0-4.23,3.92,24.59,24.59,0,1,0,37.4,0Z"/><path class="cls-2" d="M53.23,28A23.83,23.83,0,0,0,49,31.94a24.51,24.51,0,0,0,0,31.9,19.21,19.21,0,0,0,4.23-3.71,19,19,0,0,1,4.24-28.19A23.89,23.89,0,0,0,53.23,28Z"/><path class="cls-2" d="M28.54,31.94A23.89,23.89,0,0,0,24.3,28a23.83,23.83,0,0,0-4.23,3.92,19.21,19.21,0,0,1,4.23,3.71,18.93,18.93,0,0,1,0,24.48,19.26,19.26,0,0,0,4.24,3.71,24.51,24.51,0,0,0,0-31.9Z"/></svg>